<svg width="334" height="525" viewBox="0 0 334 525" xmlns="http://www.w3.org/2000/svg"><title>pin</title><g fill="none" fill-rule="evenodd"><path d="M176.543 377.045v138.41A9.542 9.542 0 0 1 167 525a9.542 9.542 0 0 1-9.543-9.545v-138.41c0-13.888 0-38.549-26.114-46.768C56.241 313.94 0 247.08 0 167.045 0 74.79 74.75 0 167 0c92.232 0 167 74.77 167 167.045 0 80.02-56.231 146.895-131.343 163.232-26.114 8.224-26.114 32.885-26.114 46.768" fill="#FFF"/><path d="M167 19.09c81.692 0 147.914 66.242 147.914 147.955C314.914 248.76 248.692 315 167 315S19.086 248.76 19.086 167.045C19.086 85.332 85.308 19.091 167 19.091" fill="#FF00BF"/><path d="M167 128.864c21.08 0 38.171 17.096 38.171 38.181 0 21.086-17.09 38.182-38.171 38.182-21.08 0-38.171-17.096-38.171-38.182 0-21.085 17.09-38.181 38.171-38.181" fill="#FFF"/></g></svg>